<svg viewBox="0 0 60 60" fill="none" xmlns="http://www.w3.org/2000/svg">
  <!-- Main water droplet shape -->
  <path 
    d="M30 8C30 8 42 20 42 32C42 38.627 36.627 44 30 44C23.373 44 18 38.627 18 32C18 20 30 8 30 8Z"
    fill="url(#gradient1)"
    stroke="#1e40af" 
    stroke-width="1.5"
  />
  
  <!-- Swirly lines inside droplet - Nike-inspired curves -->
  <path 
    d="M24 26C26 24, 28 26, 30 24C32 22, 34 24, 36 22"
    stroke="#3b82f6" 
    stroke-width="2.5" 
    fill="none"
    stroke-linecap="round"
  />
  <path 
    d="M22 32C24 30, 26 32, 28 30C30 28, 32 30, 34 28C36 26, 38 28, 40 26"
    stroke="#60a5fa" 
    stroke-width="2" 
    fill="none"
    stroke-linecap="round"
  />
  <path 
    d="M25 38C27 36, 29 38, 31 36C33 34, 35 36, 37 34"
    stroke="#93c5fd" 
    stroke-width="1.5" 
    fill="none"
    stroke-linecap="round"
  />
  
  <!-- Small highlight droplet -->
  <ellipse 
    cx="32" 
    cy="22" 
    rx="2" 
    ry="3" 
    fill="#dbeafe"
    opacity="0.8"
  />
  
  <!-- Gradient definitions -->
  <defs>
    <linearGradient id="gradient1" x1="0%" y1="0%" x2="100%" y2="100%">
      <stop offset="0%" stop-color="#3b82f6" />
      <stop offset="50%" stop-color="#2563eb" />
      <stop offset="100%" stop-color="#1d4ed8" />
    </linearGradient>
  </defs>
</svg>
