<svg viewBox="0 0 192 192" fill="none" xmlns="http://www.w3.org/2000/svg">
  <!-- Main water droplet shape -->
  <path 
    d="M96 25.6C96 25.6 134.4 64 134.4 102.4C134.4 123.606 117.206 140.8 96 140.8C74.794 140.8 57.6 123.606 57.6 102.4C57.6 64 96 25.6 96 25.6Z"
    fill="url(#gradient1)"
    stroke="#1e40af" 
    stroke-width="4.8"
  />
  
  <!-- Swirly lines inside droplet - Nike-inspired curves -->
  <path 
    d="M76.8 83.2C83.2 76.8, 89.6 83.2, 96 76.8C102.4 70.4, 108.8 76.8, 115.2 70.4"
    stroke="#3b82f6" 
    stroke-width="8" 
    fill="none"
    stroke-linecap="round"
  />
  <path 
    d="M70.4 102.4C76.8 96, 83.2 102.4, 89.6 96C96 89.6, 102.4 96, 108.8 89.6C115.2 83.2, 121.6 89.6, 128 83.2"
    stroke="#60a5fa" 
    stroke-width="6.4" 
    fill="none"
    stroke-linecap="round"
  />
  <path 
    d="M80 121.6C86.4 115.2, 92.8 121.6, 99.2 115.2C105.6 108.8, 112 115.2, 118.4 108.8"
    stroke="#93c5fd" 
    stroke-width="4.8" 
    fill="none"
    stroke-linecap="round"
  />
  
  <!-- Small highlight droplet -->
  <ellipse 
    cx="102.4" 
    cy="70.4" 
    rx="6.4" 
    ry="9.6" 
    fill="#dbeafe"
    opacity="0.8"
  />
  
  <!-- Gradient definitions -->
  <defs>
    <linearGradient id="gradient1" x1="0%" y1="0%" x2="100%" y2="100%">
      <stop offset="0%" stop-color="#3b82f6" />
      <stop offset="50%" stop-color="#2563eb" />
      <stop offset="100%" stop-color="#1d4ed8" />
    </linearGradient>
  </defs>
</svg>
